<?xml version="1.0" encoding="utf-8"?>
<!-- Generator: Adobe Illustrator 20.1.0, SVG Export Plug-In . SVG Version: 6.00 Build 0)  -->
<svg version="1.1" id="Layer_1" xmlns="http://www.w3.org/2000/svg" xmlns:xlink="http://www.w3.org/1999/xlink" x="0px" y="0px"
	 viewBox="0 0 20 20" style="enable-background:new 0 0 20 20;" xml:space="preserve">
<g>
	<g>
		<path d="M13.5,14c-0.1,0-0.3,0-0.4-0.1l-3.6-3.6V3.5C9.5,3.2,9.7,3,10,3s0.5,0.2,0.5,0.5v6.3l3.4,3.4c0.2,0.2,0.2,0.5,0,0.7
			C13.8,14,13.6,14,13.5,14z"/>
	</g>
</g>
<g>
	<path d="M10,1c5,0,9,4,9,9s-4,9-9,9s-9-4-9-9S5,1,10,1 M10,0C4.5,0,0,4.5,0,10s4.5,10,10,10s10-4.5,10-10S15.5,0,10,0L10,0z"/>
</g>
</svg>
