<svg xmlns="http://www.w3.org/2000/svg" viewBox="0 0 20 20">
<g>
	<g>
		<path d="M19.6,20H0.4C0.2,20,0,19.8,0,19.6v-7.5c0-0.2,0.2-0.4,0.4-0.4s0.4,0.2,0.4,0.4v7.2h18.5v-7.2	c0-0.2,0.2-0.4,0.4-0.4s0.4,0.2,0.4,0.4v7.5C20,19.8,19.8,20,19.6,20z"/>
	</g>
	<g>
		<path d="M10.1,17.3c-0.1,0-0.3,0-0.4-0.1l-5.6-5.6c-0.2-0.2-0.2-0.5,0-0.7c0.2-0.2,0.5-0.2,0.7,0l5.2,5.2l5.2-5.2	c0.2-0.2,0.5-0.2,0.7,0s0.2,0.5,0,0.7l-5.6,5.6C10.2,17.2,10.1,17.3,10.1,17.3z"/>
	</g>
	<g>
		<path d="M9.9,17.3c-0.3,0-0.5-0.2-0.5-0.5v-11c0-0.3,0.2-0.5,0.5-0.5s0.5,0.2,0.5,0.5v11C10.4,17,10.3,17.3,9.9,17.3z	"/>
	</g>
</g>
</svg>
