<?xml version="1.0" encoding="utf-8"?>
<!-- Generator: Adobe Illustrator 20.1.0, SVG Export Plug-In . SVG Version: 6.00 Build 0)  -->
<svg version="1.1" id="Layer_1" xmlns="http://www.w3.org/2000/svg" xmlns:xlink="http://www.w3.org/1999/xlink" x="0px" y="0px"
	 viewBox="0 0 111.9 310.7" style="enable-background:new 0 0 111.9 310.7;" xml:space="preserve">
<style type="text/css">
	.st0{fill:#010101;}
</style>
<path class="st0" d="M11.8,39.9c0,0-3.8,0.4-4.8,0.3c-1-0.1-3.3-2.1-3.3-5.4C3.7,31.6,7,29,7,29l4.3,0.1c0,0,1.4-1,3-1
	c1.6,0,5.2,0,5.2,0s0.1-1.2,0.9-1.8c0.8-0.6,1.5-0.7,1.7-2.2c0.2-1.5,2.7-2.1,4.1-2.2c1.4-0.1,2.9-0.2,2.9-0.2s-1.3-4.5-0.5-6.1
	C29.5,14,38,1.8,42.2,0.7c4.3-1,12.5-1.9,16.8,3.8c4.2,5.6,6.4,10.2,6,13.2c-0.5,3-2,5.5-0.7,7.7c1.3,2.1,2.7,5,2.7,5l5.3,0.2
	c0,0,0.3-1.6,1-2.6c0.8-1-0.5-3.8,1.7-3.9c2.1-0.1,1.6-0.2,1.6-0.2s0-3.4-1.1-3.4c-1.1,0-5.4,0.1-6.6-3.4C67.7,13.5,71.5,6.4,74,5.1
	c2.4-1.2,4.5,0.3,5.4-0.3c0.9-0.7,5.1-1.2,6.9,0.3c1.7,1.5,4.2,5.6,3.4,6.5c-0.8,0.9-1.2,0.9-1.2,1.8c0,0.9,0,0.9,0,0.9
	s1,0.9-0.2,2.2c-1.2,1.2-3.4,2.3-4.2,1.8c-0.9-0.5-1.1-1.6-1.1-1.6l-1.4-0.1l-0.1,2.6c0,0,0.5-0.3,0.4,1.2c-0.1,1.5-0.3,2.4,1.8,2.5
	c2.1,0.2,3.2,4.3,3.2,4.3l3.2,0l0.2,3.1l-1.8,0.1l0,1.4c0,0,1.4-0.1,1.6,4c0.2,4.1,0.1,5.6,0.1,5.6l-0.5,0.1c0,0,1.7,2.6,2.9,3
	c1.2,0.4,2.3-0.4,2.2,1.1c-0.1,1.5,1.9,4,2,5.4c0.2,1.4,2.1,2.3,4.2,5c2.1,2.7,1.4,5.4,2.7,9.8c1.3,4.4,2.9,11,2.9,12.9
	c0,1.9,1.4,6.4,1.9,8.8c0.5,2.5,3.6,5.8,2.4,7.6c-1.3,1.7-3.2,3-3.2,3s0.3,1.2,0.1,4.8c-0.2,3.6-0.6,8.3,0.5,12.9
	c1.2,4.7,0.5,8.8-0.6,10.6c-1,1.8-2.4,2-2.4,2s0,0.3-0.5,0.6c-0.5,0.3-0.5,0.3-0.5,0.3l-0.1,0.8c0,0,2.5-0.5,2.7,1
	c0.2,1.5,0.8,4.9,0.3,5.4c-0.5,0.5-0.5,0.5-0.5,0.5s0.9,1.9-0.9,2.3c-1.8,0.3-12.8,2.4-12.8,2.4s3.8,8.7,4.3,12.6
	c0.5,3.9,0.9,4.3-0.2,5c-1,0.8-1,0.8-1,0.8s0.9,3.4,0.1,6.2s-0.8,5.6,0.5,11.3c1.3,5.7-0.6,16.2,0.3,20.1c1,3.8,2.3,8.3,1.5,11.7
	c-0.8,3.4,2,5,2.4,7.3c0.4,2.3,6.3,21.7,6.2,26.1c-0.1,4.4,0,5.9,1.8,8.9c1.8,3,3.4,11.3,2.1,17.1c-1.3,5.8-2.7,6.6-2.4,8.3
	c0.2,1.7,1.7,8.3,1.4,9c-0.3,0.7-0.3,0.7-0.3,0.7s0.6,5.8,1,8.7c0.3,2.9,0.3,8.6,0.3,8.6s1.2,1.5,0.9,3.3c-0.3,1.8-9.5,5.3-12.9,1.8
	c-3.5-3.4-1.8-4.8-8.1-6.5c-6.3-1.7-7-3.9-6.9-8c0.1-4.1,3.1-6.6,4.3-6.6c1.2,0.1,1.2,0.1,1.2,0.1s2.8,0.2,2.6-3.8
	c-0.2-4-3.2-12.3-2.4-14.4c0.9-2.1,0.1-6.1-2.1-7.7c-2.2-1.6-6.5-14.2-9.9-26.7c-3.5-12.5-12.4-45-12.4-45s0.2,9.5-1,13.8
	c-1.3,4.3-2.2,9.8-0.7,15.6c1.5,5.8,2.5,12.8,3.2,21.7c0.7,8.9-0.1,19.3,2.2,22.7c2.3,3.4,0.7,6.1-1.9,7.1c-2.5,0.9-0.1,3.9,0.3,4.9
	c0.5,0.9,0.2,0.1-1.2,1.8c-1.4,1.7,0.6,9,0.6,9s1.7,6.2,2.4,10.1c0.7,3.8,0.5,5,0.5,5.3s2,5.1,0.5,6.1c-1.5,1-10.2,3.5-16.8,0.7
	c-6.6-2.8-19.3-3.9-19.4-8.6c-0.1-4.6,1.7-9.1,5.2-9.5c3.5-0.5,4.1-0.6,5.5-2.4c1.4-1.8,1.7-1.7,1.7-1.7s-4.2-6.7-6-9.5
	c-1.8-2.8,0-6.5,2.8-9.7c2.8-3.2,2-3.7,0.3-4.6c-1.7-0.9-1.1-10.6-3.5-19.9c-2.4-9.4-5.2-29-6.6-42.2c-1.4-13.2-2.2-22.5-2.2-22.5
	s-2.3,0.2-2.3-2.9c0-3.1-0.1-8.9-0.1-8.9s-4-1-3.9-3.4c0.1-2.4,2.3-12.8,1.6-17.9c-0.7-5,3.8-17.2,3.8-17.2s-10.6-0.2-10.6-4.2
	c0-4-1-17.9-1-17.9s-1.9-1.9-2.1-4.9c-0.2-2.9,1.4-6.6,1.4-6.6s-2.6,2.8-7,0.4C6.7,92.8-0.5,90.2,0,84.7C0.6,79.1,1.7,71.6,4.2,68
	c2.5-3.6,3.2-4.9,3.2-6.5c0-1.6,3.4-4.2,3.4-4.2s0.3-2.9,1.3-3.4c0.9-0.5,0.1-0.8-0.1-2c-0.2-1.2,1.4-1.4,1.4-3.3
	c0-1.9,2.1-2.7,2.1-2.7s0-1-1.3-1.6c-1.2-0.6-0.9-2.9-1.5-3.7C12.1,40,11.8,39.9,11.8,39.9z"/>
</svg>
